<?xml version="1.0" standalone="no"?>
<!DOCTYPE svg PUBLIC "-//W3C//DTD SVG 20010904//EN"
 "http://www.w3.org/TR/2001/REC-SVG-20010904/DTD/svg10.dtd">
<svg version="1.0" xmlns="http://www.w3.org/2000/svg"
 width="659.000000pt" height="84.000000pt" viewBox="0 0 659.000000 84.000000"
 preserveAspectRatio="xMidYMid meet">

<g transform="translate(0.000000,84.000000) scale(0.100000,-0.100000)"
fill="#000000" stroke="none">
<path d="M5830 488 l0 -176 55 21 55 22 0 153 c0 95 -4 152 -10 152 -5 0 -10
-6 -10 -12 0 -9 -4 -8 -10 2 -8 12 -11 13 -19 1 -7 -11 -9 -11 -14 0 -4 12 -7
11 -16 -1 -10 -13 -12 -13 -21 0 -7 10 -10 -42 -10 -162z"/>
<path d="M6241 513 l-1 -153 39 0 c22 0 46 -3 55 -6 14 -5 16 12 16 150 0 97
-4 156 -10 156 -5 0 -10 -6 -10 -12 0 -9 -4 -8 -10 2 -8 12 -11 13 -19 1 -6
-9 -10 -10 -16 -2 -5 9 -10 9 -20 1 -10 -8 -14 -7 -18 2 -3 7 -6 -56 -6 -139z"/>
<path d="M245 581 c-127 -58 -143 -212 -32 -295 37 -27 136 -29 185 -3 27 15
32 23 32 54 0 20 7 45 17 55 15 17 14 18 -46 18 -39 0 -60 -4 -56 -10 3 -5 13
-10 21 -10 10 0 14 -13 14 -50 l0 -50 -54 0 c-62 0 -100 24 -122 76 -34 81 -5
172 63 200 52 22 95 11 132 -34 l30 -37 1 30 c0 38 -9 51 -43 64 -42 16 -97
13 -142 -8z"/>
<path d="M3545 586 c-128 -57 -143 -241 -25 -303 47 -25 108 -30 159 -12 32
11 46 39 39 76 -3 14 -7 12 -23 -15 -28 -47 -80 -61 -132 -36 -47 24 -73 72
-73 139 0 63 28 111 77 132 53 21 92 8 120 -42 l23 -40 0 47 c0 43 -2 47 -31
57 -42 15 -97 13 -134 -3z"/>
<path d="M5566 568 c-3 -13 -6 -75 -6 -138 0 -118 6 -160 21 -160 5 0 9 72 9
160 0 147 -8 195 -24 138z"/>
<path d="M5970 555 c0 -8 -4 -15 -10 -15 -15 0 -13 -180 3 -184 57 -18 64 -16
71 16 8 41 23 58 52 58 28 0 54 -35 54 -71 0 -26 0 -27 38 -14 l37 13 3 106
c1 58 0 106 -4 106 -4 0 -13 -8 -20 -17 -13 -17 -13 -17 -14 0 0 9 -7 17 -15
17 -8 0 -15 -8 -15 -17 -1 -16 -2 -16 -16 2 -15 20 -16 20 -29 1 -13 -17 -15
-17 -21 -3 -8 21 -24 22 -24 2 0 -8 -4 -15 -10 -15 -5 0 -10 7 -10 15 0 20
-17 19 -29 -2 -10 -17 -10 -17 -11 0 0 9 -7 17 -15 17 -8 0 -15 -7 -15 -15z"/>
<path d="M2278 534 c-29 -15 -42 -46 -36 -85 2 -17 20 -33 65 -58 69 -38 84
-62 57 -92 -29 -33 -101 -18 -122 25 -10 19 -11 18 -11 -11 -1 -29 3 -33 38
-44 77 -23 141 9 143 71 1 37 -14 54 -79 89 -54 29 -69 65 -37 88 27 19 52 16
79 -12 l25 -24 0 25 c0 41 -69 57 -122 28z"/>
<path d="M3907 518 c-76 -180 -101 -234 -111 -240 -6 -4 7 -8 29 -8 26 0 35 3
26 9 -11 7 -11 15 -1 45 11 36 12 36 69 36 56 0 57 0 70 -36 11 -30 11 -38 0
-45 -9 -6 4 -9 35 -9 41 0 47 2 36 14 -6 8 -35 70 -64 137 -28 67 -57 124 -63
126 -7 3 -18 -11 -26 -29z m32 -75 c8 -21 16 -44 18 -50 4 -9 -7 -13 -36 -13
-23 0 -41 3 -41 7 0 15 33 93 39 93 4 0 13 -17 20 -37z"/>
<path d="M5027 518 c-76 -180 -101 -234 -111 -240 -6 -4 7 -8 29 -8 26 0 35 3
26 9 -11 7 -11 15 0 45 13 36 14 36 69 36 55 0 56 0 69 -36 11 -30 11 -38 0
-45 -9 -6 4 -9 35 -9 40 0 47 2 37 14 -7 8 -35 69 -64 137 -29 67 -57 124 -64
126 -7 3 -18 -11 -26 -29z m36 -81 c9 -23 17 -46 17 -50 0 -4 -18 -7 -40 -7
-22 0 -40 3 -40 7 0 14 33 93 39 93 3 0 14 -19 24 -43z"/>
<path d="M543 529 c14 -8 17 -25 17 -100 0 -60 5 -100 15 -118 33 -65 170 -66
205 -2 5 11 10 63 10 115 0 80 3 97 18 105 13 8 7 10 -28 10 -35 0 -41 -2 -27
-10 14 -8 17 -25 17 -98 0 -74 -3 -93 -21 -115 -17 -21 -29 -26 -64 -26 -62 0
-77 26 -83 138 -4 74 -2 87 14 99 16 11 11 13 -37 13 -41 -1 -50 -3 -36 -11z"/>
<path d="M913 529 c15 -9 17 -26 17 -124 0 -98 -2 -115 -17 -124 -14 -8 -7
-10 32 -10 40 0 45 2 28 9 -22 9 -23 15 -23 105 0 52 2 95 4 95 2 0 46 -49 97
-110 51 -60 96 -110 101 -110 4 0 8 58 8 130 0 112 2 130 18 139 13 8 7 10
-28 10 -35 0 -41 -2 -27 -10 14 -8 17 -25 17 -94 0 -47 -3 -85 -7 -84 -5 0
-43 43 -86 95 -74 88 -81 94 -115 94 -30 -1 -34 -3 -19 -11z"/>
<path d="M1278 533 c9 -3 12 -39 12 -128 0 -89 -3 -125 -12 -128 -7 -3 7 -6
31 -6 39 -1 42 1 28 12 -15 10 -17 26 -15 104 l3 91 93 -109 c51 -60 98 -109
103 -109 5 0 9 58 9 134 0 120 2 135 18 139 9 3 -5 5 -33 5 -27 0 -42 -2 -32
-5 15 -4 17 -17 17 -94 0 -49 -2 -89 -4 -89 -2 0 -39 43 -82 95 -72 88 -80 95
-113 94 -20 0 -30 -3 -23 -6z"/>
<path d="M1648 533 c9 -3 12 -39 12 -128 0 -89 -3 -125 -12 -128 -7 -3 38 -6
100 -6 l112 -1 0 38 c-1 35 -2 36 -15 18 -8 -11 -15 -23 -15 -28 0 -4 -27 -8
-60 -8 l-60 0 0 55 0 55 36 0 c23 0 42 -6 50 -17 12 -16 13 -12 13 32 0 43 -2
47 -11 28 -9 -18 -20 -23 -50 -23 l-38 0 0 50 0 50 53 0 c46 0 56 -3 65 -22
10 -22 11 -21 11 10 l1 32 -102 -1 c-57 0 -97 -3 -90 -6z"/>
<path d="M1943 533 c15 -4 17 -19 17 -128 0 -109 -2 -124 -17 -128 -10 -3 7
-5 37 -5 30 0 49 2 43 5 -8 3 -13 25 -13 59 0 75 24 73 69 -6 34 -58 36 -60
75 -60 33 1 37 3 23 11 -9 5 -33 35 -52 65 l-36 56 26 24 c20 18 25 32 23 56
-4 45 -35 58 -133 57 -44 -1 -72 -3 -62 -6z m135 -25 c7 -7 12 -24 12 -38 0
-34 -17 -50 -52 -50 -27 0 -28 2 -28 50 0 48 1 50 28 50 15 0 33 -5 40 -12z"/>
<path d="M2498 533 c9 -3 12 -39 12 -128 0 -89 -3 -125 -12 -128 -7 -3 10 -5
37 -5 28 0 44 2 38 5 -10 3 -13 39 -13 128 0 109 2 124 18 128 9 3 -8 5 -38 5
-30 0 -49 -2 -42 -5z"/>
<path d="M2683 529 c15 -9 17 -26 17 -124 0 -98 -2 -115 -17 -124 -13 -8 4
-10 67 -11 64 0 94 5 120 18 91 48 93 194 4 237 -38 18 -222 22 -191 4z m176
-40 c27 -26 31 -38 31 -84 0 -45 -5 -58 -29 -84 -24 -26 -36 -31 -75 -31 l-46
0 0 115 0 115 44 0 c36 0 50 -6 75 -31z"/>
<path d="M3033 529 c15 -9 17 -26 17 -124 0 -98 -2 -115 -17 -124 -13 -8 13
-10 95 -11 l112 0 0 38 -1 37 -15 -27 c-13 -26 -19 -28 -74 -28 l-60 0 0 55 0
55 40 0 c27 0 42 -6 49 -17 8 -14 10 -8 10 27 0 35 -2 41 -10 28 -7 -12 -22
-18 -49 -18 l-40 0 0 50 0 50 54 0 c44 0 56 -4 69 -22 16 -23 16 -23 16 10 l1
32 -107 0 c-78 -1 -103 -3 -90 -11z"/>
<path d="M4153 530 c15 -9 17 -27 17 -125 0 -98 -2 -115 -17 -124 -14 -8 -3
-10 42 -10 33 1 52 3 43 6 -14 4 -18 15 -18 59 l0 54 44 0 c58 0 96 29 96 74
0 61 -17 71 -127 74 -73 2 -94 0 -80 -8z m139 -22 c45 -36 18 -98 -42 -98 -30
0 -30 1 -30 55 0 54 1 55 28 55 16 0 35 -6 44 -12z"/>
<path d="M4443 529 c15 -9 17 -26 17 -124 0 -98 -2 -115 -17 -124 -14 -8 -5
-10 37 -10 42 0 51 2 38 10 -16 9 -18 26 -18 124 0 98 2 115 18 124 13 8 4 10
-38 10 -42 0 -51 -2 -37 -10z"/>
<path d="M4600 503 l1 -38 15 28 c12 22 21 27 54 27 l40 0 0 -115 c0 -111 -1
-116 -22 -125 -17 -6 -7 -9 42 -9 49 0 59 3 43 9 -22 9 -23 14 -23 125 l0 115
40 0 c37 0 42 -4 55 -32 l14 -33 1 43 0 42 -130 0 -130 0 0 -37z"/>
<path d="M5273 529 c15 -9 17 -26 17 -124 0 -98 -2 -115 -17 -124 -13 -8 13
-10 95 -11 l112 0 -1 48 -1 47 -16 -37 c-17 -37 -18 -38 -74 -38 l-58 0 0 115
c0 111 1 116 23 125 17 7 8 9 -38 9 -45 0 -56 -2 -42 -10z"/>
<path d="M6182 335 c-24 -7 -52 -21 -63 -31 -18 -16 -21 -16 -68 9 -62 34
-103 34 -193 -2 -40 -15 -97 -34 -125 -41 -29 -6 -53 -16 -53 -21 0 -16 32
-10 154 32 85 29 129 39 150 35 17 -4 72 -30 121 -58 79 -46 98 -53 157 -56
53 -3 83 1 133 19 36 12 65 28 65 35 0 17 -63 62 -111 79 -51 18 -110 18 -167
0z m136 -16 c27 -5 64 -21 83 -34 l32 -25 -39 -17 c-58 -26 -166 -24 -228 4
-41 20 -47 25 -36 38 12 15 89 43 122 44 9 1 39 -4 66 -10z"/>
</g>
</svg>
